<?xml version="1.0" encoding="utf-8"?>
<!-- Generator: Adobe Illustrator 22.1.0, SVG Export Plug-In . SVG Version: 6.00 Build 0)  -->
<svg version="1.1" id="Layer_1" xmlns="http://www.w3.org/2000/svg" xmlns:xlink="http://www.w3.org/1999/xlink" x="0px" y="0px"
	 viewBox="0 0 310 41.6" style="enable-background:new 0 0 310 41.6;" xml:space="preserve">
<style type="text/css">
	.st0{fill:#DA291C;}
	.st1{fill:none;}
	.st2{fill:#404040;}
</style>
<title>Artboard 3</title>
<g>
	<polygon class="st0" points="113,6.9 97,34.7 99.3,34.7 113,10.9 113,14.9 101.6,34.7 103.9,34.7 113,18.8 113,22.8 106.2,34.7 
		108.5,34.7 113,26.8 113,30.7 110.8,34.7 113,34.7 113.1,34.7 129.1,34.7 	"/>
	<path d="M136,10.9h14.7V14h-11.2v5.2h9.9v3.1h-9.9v5.3h11.4v3.1h-14.8L136,10.9L136,10.9z"/>
	<path d="M173.4,10.9l-6.9,9.7l7.2,10.1h-4.1l-5.2-7.6l-5.2,7.6h-4l7.2-10.1l-6.9-9.8h4.1l4.9,7.2l5-7.2h3.9V10.9z"/>
	<path d="M176.5,20.9L176.5,20.9c0-5.8,4.6-10.4,10.4-10.4c5.7,0,10.4,4.6,10.4,10.4l0,0c0,5.7-4.6,10.4-10.3,10.4
		C181.2,31.2,176.6,26.6,176.5,20.9L176.5,20.9z M193.6,20.9L193.6,20.9c0.1-3.8-2.7-6.9-6.5-7c-3.7-0.1-6.8,2.7-7,6.5
		c0,0.2,0,0.3,0,0.5l0,0c-0.1,3.7,2.8,6.9,6.5,7c0.1,0,0.1,0,0.2,0c3.7,0,6.7-3,6.7-6.7C193.6,21,193.6,20.9,193.6,20.9L193.6,20.9z
		"/>
	<path d="M201.6,27.9l2.1-2.5c1.7,1.6,3.9,2.5,6.3,2.6c2.1,0,3.5-1,3.5-2.5l0,0c0-1.4-0.8-2.2-4.5-3.1c-4.2-1-6.6-2.3-6.6-5.9v-0.1
		c0-3.4,2.8-5.8,6.8-5.8c2.6-0.1,5.2,0.8,7.2,2.5l-1.8,2.6c-1.5-1.2-3.4-1.9-5.4-2c-2,0-3.2,1-3.2,2.3l0,0c0,1.5,0.9,2.2,4.7,3.1
		c4.2,1,6.4,2.5,6.4,5.8V25c0,3.7-2.9,5.9-7.1,5.9C206.8,31.1,203.9,29.9,201.6,27.9z"/>
	<path d="M221.8,20.9L221.8,20.9c-0.1-5.6,4.2-10.2,9.7-10.3c0,0,0,0,0.1,0h0.4c2.9-0.1,5.7,1,7.8,3.1l-2.2,2.6
		c-1.5-1.5-3.5-2.4-5.6-2.4c-3.7,0-6.5,3.1-6.5,7V21c0,3.9,2.8,7,6.6,7c2.2,0,4.2-0.9,5.7-2.5l2.2,2.3c-2,2.3-4.9,3.6-8,3.5
		c-5.5,0.1-10-4.3-10.1-9.8L221.8,20.9z"/>
	<path d="M252.2,10.8h3.2l8.7,20h-3.7l-2-4.8H249l-2,4.8h-3.6L252.2,10.8z M257.2,22.9l-3.4-7.9l-3.4,8L257.2,22.9z"/>
	<path d="M269.1,10.9h3.5v16.6H283v3.2h-13.9V10.9z"/>
	<path d="M288.2,10.9h14.7V14h-11.2v5.2h9.9v3.1h-9.9v5.3h11.4v3.1h-14.9V10.9z"/>
	<rect x="90.1" class="st1" width="219.9" height="41.6"/>
	<rect class="st1" width="90.1" height="41.6"/>
	<g>
		<path class="st2" d="M8.3,16h3.6c2.2,0,3.7,1.1,3.7,3.1l0,0c0,2.1-1.8,3.2-3.9,3.2H9V26H8.3V16z M11.8,21.6c1.9,0,3.1-1,3.1-2.5
			l0,0c0-1.6-1.2-2.4-3-2.4H9v4.9H11.8z"/>
		<path class="st2" d="M17.2,22.4L17.2,22.4c0-2.1,1.6-3.9,3.8-3.9s3.7,1.8,3.7,3.8l0,0c0,2.1-1.6,3.8-3.8,3.8
			C18.7,26.3,17.2,24.5,17.2,22.4z M23.9,22.4L23.9,22.4c0-1.8-1.3-3.2-3-3.2s-3,1.4-3,3.1l0,0c0,1.8,1.3,3.2,3,3.2
			C22.7,25.6,23.9,24.2,23.9,22.4z"/>
		<path class="st2" d="M25.9,18.8h0.8l2.2,6.4l2.2-6.5h0.6l2.2,6.5l2.2-6.4h0.8l-2.7,7.4h-0.6l-2.2-6.3l-2.2,6.3h-0.6L25.9,18.8z"/>
		<path class="st2" d="M38,22.4L38,22.4c0-2.2,1.5-3.8,3.5-3.8c2.1,0,3.4,1.7,3.4,3.8c0,0.1,0,0.2,0,0.3h-6.1
			c0.1,1.8,1.4,2.9,2.9,2.9c1.1,0,1.9-0.5,2.5-1.1l0.5,0.4c-0.7,0.8-1.6,1.4-3,1.4C39.7,26.3,38,24.7,38,22.4z M44.1,22.1
			c-0.1-1.5-0.9-2.8-2.6-2.8c-1.5,0-2.6,1.2-2.7,2.8H44.1z"/>
		<path class="st2" d="M46.9,18.8h0.7v2.1c0.6-1.3,1.8-2.3,3.2-2.2v0.8h-0.1c-1.7,0-3.2,1.3-3.2,3.7v3h-0.7L46.9,18.8L46.9,18.8z"/>
		<path class="st2" d="M51.8,22.4L51.8,22.4c0-2.2,1.5-3.8,3.5-3.8c2.1,0,3.4,1.7,3.4,3.8c0,0.1,0,0.2,0,0.3h-6.1
			c0.1,1.8,1.4,2.9,2.9,2.9c1.1,0,1.9-0.5,2.5-1.1l0.5,0.4c-0.7,0.8-1.6,1.4-3,1.4C53.4,26.3,51.8,24.7,51.8,22.4z M57.8,22.1
			c-0.1-1.5-0.9-2.8-2.6-2.8c-1.5,0-2.6,1.2-2.7,2.8H57.8z"/>
		<path class="st2" d="M60.2,22.4L60.2,22.4c0-2.4,1.8-3.9,3.6-3.9c1.5,0,2.4,0.8,3,1.8v-4.7h0.7v10.5h-0.7v-1.6
			c-0.6,1-1.6,1.8-3,1.8C62,26.3,60.2,24.8,60.2,22.4z M66.8,22.4L66.8,22.4c0-1.9-1.5-3.2-3-3.2c-1.6,0-2.9,1.2-2.9,3.1l0,0
			c0,1.9,1.3,3.2,2.9,3.2C65.3,25.6,66.8,24.3,66.8,22.4z"/>
		<path class="st2" d="M75.2,24.5v1.6h-0.7V15.6h0.7v4.8c0.6-1,1.6-1.8,3-1.8c1.8,0,3.6,1.4,3.6,3.8l0,0c0,2.4-1.8,3.8-3.6,3.8
			C76.7,26.3,75.8,25.4,75.2,24.5z M81,22.4L81,22.4c0-2-1.3-3.2-2.9-3.2c-1.5,0-3,1.3-3,3.1l0,0c0,1.9,1.5,3.1,3,3.1
			C79.7,25.6,81,24.4,81,22.4z"/>
		<path class="st2" d="M89.3,18.8h0.8l-3.2,7.6c-0.6,1.5-1.4,2.1-2.4,2.1c-0.6,0-1-0.1-1.5-0.3l0.2-0.6c0.4,0.2,0.7,0.3,1.2,0.3
			c0.8,0,1.3-0.4,1.8-1.7l-3.5-7.3h0.8l3,6.5L89.3,18.8z"/>
	</g>
</g>
</svg>
